<svg version="1.1" xmlns="http://www.w3.org/2000/svg" xmlns:xlink="http://www.w3.org/1999/xlink" width="64.78309" height="66.70713" viewBox="0,0,64.78309,66.70713"><g transform="translate(-207.60845,-147.60845)"><g stroke-miterlimit="10"><g stroke-linecap="butt"><path d="M256.9,200.00002h-33.8c-1.71208,0 -3.1,-1.38792 -3.1,-3.1v-33.8c0,-1.71208 1.38792,-3.1 3.1,-3.1h33.8c1.71208,0 3.1,1.38792 3.1,3.1v33.8c0,1.71208 -1.38792,3.1 -3.1,3.1z" fill="none" stroke="#000000" stroke-width="4"/><path d="M256.9,200.00002h-33.8c-1.71208,0 -3.1,-1.38792 -3.1,-3.1v-33.8c0,-1.71208 1.38792,-3.1 3.1,-3.1h33.8c1.71208,0 3.1,1.38792 3.1,3.1v33.8c0,1.71208 -1.38792,3.1 -3.1,3.1z" fill="#ffffff" stroke="none" stroke-width="1"/></g><path d="M233.87,189.2c-2.13734,0 -3.87,0 -3.87,0v-20c0,0 1.73266,0 3.87,0h12.26c2.13734,0 3.87,0 3.87,0v20c0,0 -1.73266,0 -3.87,0z" fill="#000000" stroke="none" stroke-width="1" stroke-linecap="butt"/><g stroke="#000000"><path d="M239.962,209.9351v-18" fill="none" stroke-width="2" stroke-linecap="round"/><path d="M240.04811,213.43254l-4.49042,-6.27506l8.76548,-0.21536z" fill="#000000" stroke-width="1" stroke-linecap="butt"/></g><path d="M207.60846,212.39155v-64.78309h64.78309v64.78309z" fill="none" stroke="none" stroke-width="0" stroke-linecap="butt"/></g></g></svg>