<svg version="1.1" xmlns="http://www.w3.org/2000/svg" xmlns:xlink="http://www.w3.org/1999/xlink" width="64.78309" height="64.78309" viewBox="0,0,64.78309,64.78309"><g transform="translate(-207.60845,-147.60845)"><g stroke-miterlimit="10"><g><path d="M244.03,180.04551h-7.83l3.91,-9z" fill="none" stroke="#000000" stroke-width="4" stroke-linejoin="round"/><path d="M244.03,180.04551h-7.83l3.91,-9z" fill="#b3b3b3" stroke="none" stroke-width="1" stroke-linejoin="miter"/></g><g><path d="M262.86334,180.04551h-7.83l3.91,-9z" fill="none" stroke="#000000" stroke-width="4" stroke-linejoin="round"/><path d="M262.86334,180.04551h-7.83l3.91,-9z" fill="#b3b3b3" stroke="none" stroke-width="1" stroke-linejoin="miter"/></g><g><path d="M225.36333,180.04551h-7.83l3.91,-9z" fill="none" stroke="#000000" stroke-width="4" stroke-linejoin="round"/><path d="M225.36333,180.04551h-7.83l3.91,-9z" fill="#b3b3b3" stroke="none" stroke-width="1" stroke-linejoin="miter"/></g><g><path d="M262.86334,180.04551h-7.83l3.91,-9z" fill="none" stroke="#000000" stroke-width="4" stroke-linejoin="round"/><path d="M262.86334,180.04551h-7.83l3.91,-9z" fill="#b3b3b3" stroke="none" stroke-width="1" stroke-linejoin="miter"/></g><g><path d="M225.36333,180.04551h-7.83l3.91,-9z" fill="none" stroke="#000000" stroke-width="4" stroke-linejoin="round"/><path d="M225.36333,180.04551h-7.83l3.91,-9z" fill="#b3b3b3" stroke="none" stroke-width="1" stroke-linejoin="miter"/></g><path d="M244.5,194.04551h-8c-2.20914,0 -4,-1.79086 -4,-4v-8c0,-2.20914 1.79086,-4 4,-4h8c2.20914,0 4,1.79086 4,4v8c0,2.20914 -1.79086,4 -4,4z" fill="#b4004c" stroke="#000000" stroke-width="2" stroke-linejoin="miter"/><path d="M263.33333,194.04551h-8c-2.20914,0 -4,-1.79086 -4,-4v-8c0,-2.20914 1.79086,-4 4,-4h8c2.20914,0 4,1.79086 4,4v8c0,2.20914 -1.79086,4 -4,4z" fill="#b4004c" stroke="#000000" stroke-width="2" stroke-linejoin="miter"/><path d="M225.83333,194.04551h-8c-2.20914,0 -4,-1.79086 -4,-4v-8c0,-2.20914 1.79086,-4 4,-4h8c2.20914,0 4,1.79086 4,4v8c0,2.20914 -1.79086,4 -4,4z" fill="#b4004c" stroke="#000000" stroke-width="2" stroke-linejoin="miter"/><g><path d="M240.5,188.04551v-5h5v5z" fill="#ffffff" stroke="#ffffff" stroke-width="2" stroke-linejoin="round"/><path d="M242.5,187.04551v-3h3v3z" fill="#000000" stroke="none" stroke-width="1" stroke-linejoin="miter"/></g><g><path d="M259.33333,188.04551v-5h5v5z" fill="#ffffff" stroke="#ffffff" stroke-width="2" stroke-linejoin="round"/><path d="M261.33333,187.04551v-3h3v3z" fill="#000000" stroke="none" stroke-width="1" stroke-linejoin="miter"/></g><g><path d="M221.83333,188.04551v-5h5v5z" fill="#ffffff" stroke="#ffffff" stroke-width="2" stroke-linejoin="round"/><path d="M223.83333,187.04551v-3h3v3z" fill="#000000" stroke="none" stroke-width="1" stroke-linejoin="miter"/></g><g><path d="M259.33333,188.04551v-5h5v5z" fill="#ffffff" stroke="#ffffff" stroke-width="2" stroke-linejoin="round"/><path d="M261.33333,187.04551v-3h3v3z" fill="#000000" stroke="none" stroke-width="1" stroke-linejoin="miter"/></g><g><path d="M221.83333,188.04551v-5h5v5z" fill="#ffffff" stroke="#ffffff" stroke-width="2" stroke-linejoin="round"/><path d="M223.83333,187.04551v-3h3v3z" fill="#000000" stroke="none" stroke-width="1" stroke-linejoin="miter"/></g><path d="M207.60846,212.39155v-64.78309h64.78309v64.78309z" fill="none" stroke="none" stroke-width="0" stroke-linejoin="miter"/></g></g></svg>