<svg version="1.1" xmlns="http://www.w3.org/2000/svg" xmlns:xlink="http://www.w3.org/1999/xlink" width="64.78309" height="64.78309" viewBox="0,0,64.78309,64.78309"><g transform="translate(-207.60845,-147.60845)"><g stroke="none" stroke-miterlimit="10"><path d="M209,207v-54h32v54z" fill="#d86736" stroke-width="1"/><path d="M218,202v-44h14v44z" fill="#f97b3d" stroke-width="1"/><g fill="#000000" stroke-width="1"><path d="M221,176c0,-2.20914 1.79086,-4 4,-4c2.20914,0 4,1.79086 4,4c0,2.20914 -1.79086,4 -4,4c-2.20914,0 -4,-1.79086 -4,-4z"/><path d="M225.93,177l1.07,9.86c-0.66287,0.09052 -1.33098,0.13728 -2,0.14c-0.66932,-0.00394 -1.33758,-0.05406 -2,-0.15l1.1,-9.85z"/></g><path d="M207.60846,212.39155v-64.78309h64.78309v64.78309z" fill="none" stroke-width="0"/></g></g></svg>