<svg version="1.1" xmlns="http://www.w3.org/2000/svg" xmlns:xlink="http://www.w3.org/1999/xlink" width="64.78309" height="64.78309" viewBox="0,0,64.78309,64.78309"><g transform="translate(-207.60845,-147.60845)"><g stroke-miterlimit="10"><g><path d="M245.44,195h9.56l-4.78,11z" fill="none" stroke="#000000" stroke-width="4" stroke-linejoin="round"/><path d="M245.44,195h9.56l-4.78,11z" fill="#b3b3b3" stroke="none" stroke-width="1" stroke-linejoin="miter"/></g><g><path d="M235.44,195h9.56l-4.78,11z" fill="none" stroke="#000000" stroke-width="4" stroke-linejoin="round"/><path d="M235.44,195h9.56l-4.78,11z" fill="#b3b3b3" stroke="none" stroke-width="1" stroke-linejoin="miter"/></g><g><path d="M225.43,195h9.57l-4.78,11z" fill="none" stroke="#000000" stroke-width="4" stroke-linejoin="round"/><path d="M225.43,195h9.57l-4.78,11z" fill="#b3b3b3" stroke="none" stroke-width="1" stroke-linejoin="miter"/></g><g><path d="M234.56,163h-9.56l4.78,-11z" fill="none" stroke="#000000" stroke-width="4" stroke-linejoin="round"/><path d="M234.56,163h-9.56l4.78,-11z" fill="#b3b3b3" stroke="none" stroke-width="1" stroke-linejoin="miter"/></g><g><path d="M244.56,163h-9.56l4.78,-11z" fill="none" stroke="#000000" stroke-width="4" stroke-linejoin="round"/><path d="M244.56,163h-9.56l4.78,-11z" fill="#b3b3b3" stroke="none" stroke-width="1" stroke-linejoin="miter"/></g><g><path d="M254.56,163h-9.56l4.78,-11z" fill="none" stroke="#000000" stroke-width="4" stroke-linejoin="round"/><path d="M254.56,163h-9.56l4.78,-11z" fill="#b3b3b3" stroke="none" stroke-width="1" stroke-linejoin="miter"/></g><g><path d="M224,184.44v9.56l-11,-4.78z" fill="none" stroke="#000000" stroke-width="4" stroke-linejoin="round"/><path d="M224,184.44v9.56l-11,-4.78z" fill="#b3b3b3" stroke="none" stroke-width="1" stroke-linejoin="miter"/></g><g><path d="M224,174.44v9.56l-11,-4.78z" fill="none" stroke="#000000" stroke-width="4" stroke-linejoin="round"/><path d="M224,174.44v9.56l-11,-4.78z" fill="#b3b3b3" stroke="none" stroke-width="1" stroke-linejoin="miter"/></g><g><path d="M224,164.43v9.57l-11,-4.78z" fill="none" stroke="#000000" stroke-width="4" stroke-linejoin="round"/><path d="M224,164.43v9.57l-11,-4.78z" fill="#b3b3b3" stroke="none" stroke-width="1" stroke-linejoin="miter"/></g><g><path d="M256,173.56v-9.56l11,4.78z" fill="none" stroke="#000000" stroke-width="4" stroke-linejoin="round"/><path d="M256,173.56v-9.56l11,4.78z" fill="#b3b3b3" stroke="none" stroke-width="1" stroke-linejoin="miter"/></g><g><path d="M256,183.56v-9.56l11,4.78z" fill="none" stroke="#000000" stroke-width="4" stroke-linejoin="round"/><path d="M256,183.56v-9.56l11,4.78z" fill="#b3b3b3" stroke="none" stroke-width="1" stroke-linejoin="miter"/></g><g><path d="M256,193.56v-9.56l11,4.78z" fill="none" stroke="#000000" stroke-width="4" stroke-linejoin="round"/><path d="M256,193.56v-9.56l11,4.78z" fill="#b3b3b3" stroke="none" stroke-width="1" stroke-linejoin="miter"/></g><g><path d="M224,195v-32h32v32z" fill="none" stroke="#000000" stroke-width="4" stroke-linejoin="round"/><path d="M224,195v-32h32v32z" fill="#39b54a" stroke="none" stroke-width="1" stroke-linejoin="miter"/></g><path d="M233,186v-14h14v14z" fill="#3ac54d" stroke="none" stroke-width="1" stroke-linejoin="miter"/><path d="M207.60846,212.39155v-64.78309h64.78309v64.78309z" fill="none" stroke="none" stroke-width="0" stroke-linejoin="miter"/></g></g></svg>