<svg version="1.1" xmlns="http://www.w3.org/2000/svg" xmlns:xlink="http://www.w3.org/1999/xlink" width="64.78309" height="64.78309" viewBox="0,0,64.78309,64.78309"><g transform="translate(-207.60845,-147.60845)"><g fill="none" stroke-miterlimit="10"><path d="M228.89326,180.00003c0,-6.13409 4.97266,-11.10676 11.10676,-11.10676c6.13409,0 11.10676,4.97266 11.10676,11.10676c0,6.13409 -4.97266,11.10676 -11.10676,11.10676c-6.13409,0 -11.10676,-4.97266 -11.10676,-11.10676z" stroke="#ff6666" stroke-width="2" stroke-linecap="butt"/><g stroke="#000000" stroke-width="1.5" stroke-linecap="round"><path d="M219.48518,155.69852h7.57873"/><path d="M244.203,155.69852h-7.57873"/><path d="M252.73795,155.69852h7.57873"/></g><g stroke="#000000" stroke-width="1.5" stroke-linecap="round"><path d="M227.21039,204.25092h-7.57872"/><path d="M244.34949,204.25092h-7.57873"/><path d="M252.88442,204.25092h7.57873"/></g><g stroke="#000000" stroke-width="1.5" stroke-linecap="round"><path d="M263.8109,160.07169v7.57873"/><path d="M263.8109,184.78951v-7.57873"/><path d="M263.8109,193.32445v7.57872"/></g><g stroke="#000000" stroke-width="1.5" stroke-linecap="round"><path d="M215.99095,160.07169v7.57873"/><path d="M215.99095,177.21078v7.57873"/><path d="M215.99095,200.90317v-7.57872"/></g><path d="M211.42367,209.00542v-56.8094h55.95126v56.80941z" stroke="none" stroke-width="0" stroke-linecap="butt"/><path d="M267.34821,152.08336l-55,55.75" stroke="#000000" stroke-width="0.5" stroke-linecap="round"/><path d="M212.25893,152.2054l56.14286,55.85714" stroke="#000000" stroke-width="0.5" stroke-linecap="round"/><path d="M207.60846,212.39155v-64.78309h64.78309v64.78309z" stroke="none" stroke-width="0" stroke-linecap="butt"/></g></g></svg>