<svg version="1.1" xmlns="http://www.w3.org/2000/svg" xmlns:xlink="http://www.w3.org/1999/xlink" width="64.78309" height="64.78309" viewBox="0,0,64.78309,64.78309"><g transform="translate(-207.60845,-147.60845)"><g stroke-miterlimit="10"><g><path d="M266,184.60003c-9.6,-3.27 -14.4,5.07 -24,1.8v-18c9.6,3.27 14.4,-5.07 24,-1.8c-2.2605,2.64374 -4.26922,5.49277 -6,8.51c2.25087,2.99758 4.25733,6.17112 6,9.49z" fill="none" stroke="#000000" stroke-width="4" stroke-linejoin="round"/><path d="M266,184.60003c-9.6,-3.27 -14.4,5.07 -24,1.8v-18c9.6,3.27 14.4,-5.07 24,-1.8c-2.2605,2.64374 -4.26922,5.49277 -6,8.51c2.25087,2.99758 4.25733,6.17112 6,9.49z" fill="#ffff00" stroke="none" stroke-width="1" stroke-linejoin="miter"/></g><g><path d="M245,202.00003v5h-10v-5h3v-35.55c-1.56787,-0.90521 -2.33228,-2.75064 -1.8637,-4.49938c0.46857,-1.74873 2.05328,-2.96472 3.8637,-2.96472c1.81042,0 3.39513,1.21599 3.8637,2.96472c0.46857,1.74873 -0.29583,3.59417 -1.8637,4.49938v35.55z" fill="none" stroke="#000000" stroke-width="4" stroke-linejoin="round"/><path d="M245,202.00003v5h-10v-5h3v-35.55c-1.56787,-0.90521 -2.33228,-2.75064 -1.8637,-4.49938c0.46857,-1.74873 2.05328,-2.96472 3.8637,-2.96472c1.81042,0 3.39513,1.21599 3.8637,2.96472c0.46857,1.74873 -0.29583,3.59417 -1.8637,4.49938v35.55z" fill="#3ac54d" stroke="none" stroke-width="1" stroke-linejoin="miter"/></g><path d="M245,202.00003v5h-10v-5h3v-35.55c-1.56787,-0.90521 -2.33228,-2.75064 -1.8637,-4.49938c0.46857,-1.74873 2.05328,-2.96472 3.8637,-2.96472c1.81042,0 3.39513,1.21599 3.8637,2.96472c0.46857,1.74873 -0.29583,3.59417 -1.8637,4.49938v35.55z" fill="#3ac54d" stroke="none" stroke-width="1" stroke-linejoin="miter"/><path d="M266,184.60003c-9.6,-3.27 -14.4,5.07 -24,1.8v-18c9.6,3.27 14.4,-5.07 24,-1.8c-2.2605,2.64374 -4.26922,5.49277 -6,8.51c2.25087,2.99758 4.25733,6.17112 6,9.49z" fill="#ffff00" stroke="none" stroke-width="1" stroke-linejoin="miter"/><path d="M257,171.69003c-2.8,3.48 -4.2,5.45 -7,8.85c-1.04378,-0.80065 -2.04514,-1.65514 -3,-2.56" fill="none" stroke="#a8a800" stroke-width="3" stroke-linejoin="round"/><path d="M207.60846,212.39155v-64.78309h64.78309v64.78309z" fill="none" stroke="none" stroke-width="0" stroke-linejoin="miter"/></g></g></svg>